<?xml version="1.0" standalone="no"?>
<!DOCTYPE svg PUBLIC "-//W3C//DTD SVG 20010904//EN"
 "http://www.w3.org/TR/2001/REC-SVG-20010904/DTD/svg10.dtd">
<svg version="1.0" xmlns="http://www.w3.org/2000/svg"
 width="332.000000pt" height="332.000000pt" viewBox="0 0 332.000000 332.000000"
 preserveAspectRatio="xMidYMid meet">

<g transform="translate(0.000000,332.000000) scale(0.100000,-0.100000)"
fill="#000000" stroke="none">
<path d="M1348 3164 c-15 -8 -49 -17 -75 -21 -26 -3 -63 -15 -81 -25 -18 -10
-38 -18 -45 -18 -7 0 -39 -13 -72 -30 -33 -16 -71 -30 -85 -30 -17 0 -40 -16
-72 -52 -27 -28 -48 -54 -48 -58 0 -3 -13 -14 -30 -23 -16 -10 -35 -23 -42
-30 -7 -7 -28 -23 -45 -35 -18 -13 -40 -38 -48 -56 -9 -18 -25 -43 -36 -55
-26 -28 -79 -128 -79 -150 0 -9 -9 -41 -20 -71 -11 -30 -20 -65 -20 -77 0 -20
-9 -48 -32 -98 -12 -27 -3 -441 11 -530 26 -154 25 -166 -9 -205 -28 -33 -30
-40 -30 -117 0 -45 -4 -85 -10 -88 -5 -3 -10 -28 -10 -56 0 -39 6 -58 30 -91
17 -22 30 -48 30 -56 0 -14 88 -185 116 -226 18 -27 111 -94 161 -117 24 -11
43 -26 43 -35 0 -33 85 -171 143 -233 97 -103 140 -144 172 -168 17 -12 62
-45 100 -73 39 -29 77 -55 85 -58 8 -3 30 -18 48 -34 18 -15 40 -28 50 -28 20
0 89 -23 98 -33 4 -4 46 -7 94 -7 47 0 91 -5 96 -10 14 -14 339 -7 413 8 60
13 90 29 141 77 19 19 63 60 98 93 45 43 62 66 62 85 0 14 5 29 10 32 6 3 10
17 10 31 0 13 4 24 9 24 13 0 31 58 31 101 0 22 5 39 10 39 6 0 10 23 10 50 0
28 5 50 10 50 6 0 10 9 10 20 0 11 3 20 8 20 4 0 15 17 24 37 10 21 24 49 32
63 7 14 18 36 24 50 32 80 49 108 106 173 63 72 67 82 82 185 4 23 11 45 15
48 5 3 9 42 9 87 0 66 -4 87 -20 107 -11 14 -20 30 -20 35 0 6 -9 17 -20 25
-17 12 -20 26 -20 82 0 39 4 68 10 68 6 0 10 9 10 20 0 11 5 20 10 20 6 0 10
11 10 24 0 14 5 28 10 31 6 3 10 15 10 26 0 10 5 19 10 19 6 0 10 9 10 19 0
11 5 23 10 26 6 4 10 55 10 120 0 65 -4 116 -10 120 -5 3 -10 16 -10 28 0 12
-9 47 -20 77 -11 30 -20 64 -20 75 0 11 -14 36 -30 55 -16 19 -30 40 -30 45 0
6 -9 17 -20 25 -11 8 -20 22 -20 31 0 28 -126 145 -187 174 -18 9 -33 19 -33
24 0 4 -8 16 -18 27 -10 10 -24 29 -32 40 -17 24 -105 94 -119 94 -5 0 -27 18
-50 40 -22 22 -47 40 -55 40 -7 0 -31 12 -52 27 -27 18 -58 29 -99 34 -33 4
-87 14 -120 23 -33 8 -79 15 -102 16 -30 0 -45 5 -52 18 -5 9 -31 23 -58 31
-26 8 -60 22 -75 33 -21 15 -45 18 -136 18 -63 0 -113 4 -117 10 -8 14 -25 12
-57 -6z m183 -36 c19 -6 58 -26 87 -45 29 -18 58 -33 65 -33 7 0 28 -8 47 -19
33 -17 136 -44 156 -40 24 4 44 -2 44 -15 0 -8 6 -16 13 -19 10 -4 -22 -22
-58 -33 -32 -9 -86 -31 -91 -37 -4 -4 -23 -7 -41 -7 -20 0 -43 -8 -55 -20 -12
-11 -30 -20 -40 -20 -10 0 -26 -4 -36 -9 -9 -5 -42 -20 -72 -34 -163 -73 -219
-97 -229 -97 -14 0 -50 -20 -77 -43 -14 -12 -34 -17 -55 -15 l-34 3 45 30 c25
16 48 34 52 40 29 42 53 65 67 65 22 0 71 23 71 33 0 4 9 7 21 7 21 0 79 35
79 48 0 4 -24 7 -53 7 -46 0 -87 -13 -149 -46 -10 -5 -27 -9 -38 -9 -11 0 -20
-4 -20 -10 0 -5 -14 -17 -31 -25 -24 -13 -34 -14 -45 -4 -11 9 -19 8 -39 -5
-33 -22 -48 -13 -33 19 6 15 20 25 31 25 11 0 29 7 39 16 9 9 36 18 59 20 22
1 44 5 47 8 10 11 -32 36 -48 29 -8 -4 -41 -9 -73 -11 -51 -3 -57 -6 -52 -23
5 -14 1 -19 -14 -19 -11 0 -26 -6 -33 -13 -28 -28 -58 -39 -74 -27 -7 7 -21
10 -30 6 -12 -4 -14 -1 -9 14 5 16 2 20 -19 20 -25 0 -38 20 -13 20 6 1 28 14
47 30 19 17 44 30 55 30 12 0 34 14 50 30 16 17 33 30 38 30 5 0 35 13 66 28
75 39 189 75 215 68 15 -3 31 6 56 30 36 36 57 41 111 22z m589 -209 c54 -23
48 -20 149 -92 47 -33 83 -67 86 -80 4 -12 41 -48 86 -82 89 -66 149 -132 149
-164 0 -13 11 -26 30 -36 21 -11 30 -23 30 -40 0 -14 11 -43 24 -64 24 -37 24
-40 7 -55 -16 -14 -22 -14 -71 4 -30 11 -56 20 -57 20 -2 0 -3 8 -3 18 0 10
-18 31 -40 48 -25 18 -40 36 -39 49 1 11 0 25 -1 30 -2 6 -4 17 -5 25 -5 35
-18 58 -40 70 -14 7 -25 24 -27 39 -2 19 -10 27 -28 29 -38 6 -75 40 -75 70 0
29 -24 38 -117 47 -37 3 -47 1 -53 -13 -3 -9 -1 -18 4 -20 21 -7 11 -21 -24
-33 -25 -9 -35 -19 -35 -34 0 -29 10 -37 27 -23 18 15 29 2 13 -17 -10 -13 -9
-15 8 -15 11 0 25 -7 32 -15 8 -9 21 -13 36 -9 21 5 24 3 22 -17 -3 -20 1 -24
20 -22 32 4 27 -10 -11 -27 -46 -22 -122 -16 -202 15 -38 15 -95 31 -125 34
-56 7 -130 36 -130 52 0 12 47 11 55 -1 6 -10 45 -15 45 -6 0 17 -15 36 -29
36 -9 0 -22 5 -29 12 -8 8 -15 8 -24 0 -17 -14 -68 -3 -68 14 0 8 7 14 15 14
9 0 20 11 27 25 6 13 14 23 17 21 10 -7 74 28 79 43 3 10 -5 12 -37 8 -39 -4
-65 -19 -101 -58 -23 -24 -50 -31 -56 -14 -4 8 -15 15 -25 15 -20 0 -26 15 -9
25 6 3 10 14 10 24 0 10 8 21 18 25 9 3 39 19 66 35 31 18 70 31 103 34 30 3
65 13 78 21 14 9 43 16 65 16 33 0 42 4 52 25 13 28 31 27 108 -6z m-510 -149
c0 -5 -9 -10 -20 -10 -11 0 -20 5 -20 10 0 6 9 10 20 10 11 0 20 -4 20 -10z
m-500 -53 c0 -16 -87 -57 -120 -57 -32 0 -15 14 35 30 22 7 49 19 60 26 24 17
25 17 25 1z m396 -12 c11 -27 -1 -39 -19 -21 -9 10 -17 22 -17 27 0 15 30 10
36 -6z m64 -35 c0 -5 -9 -10 -20 -10 -11 0 -20 5 -20 10 0 6 9 10 20 10 11 0
20 -4 20 -10z m-425 -40 c-3 -5 -10 -10 -16 -10 -5 0 -9 5 -9 10 0 6 7 10 16
10 8 0 12 -4 9 -10z m445 -100 c0 -5 -4 -10 -9 -10 -6 0 -13 5 -16 10 -3 6 1
10 9 10 9 0 16 -4 16 -10z m299 -54 c14 -6 26 -17 29 -23 6 -20 -49 -16 -93 7
-22 11 -48 20 -58 20 -10 0 -15 5 -12 10 8 12 98 3 134 -14z m161 -6 c0 -5 -4
-10 -9 -10 -6 0 -13 5 -16 10 -3 6 1 10 9 10 9 0 16 -4 16 -10z m239 -56 c12
-11 -16 -17 -71 -16 -66 2 -74 5 -63 22 6 10 122 4 134 -6z m-773 -3 c5 -5 22
-11 39 -13 19 -2 31 -9 33 -20 5 -25 -42 -24 -68 2 -11 11 -27 20 -35 20 -8 0
-15 5 -15 10 0 13 33 13 46 1z m597 -6 c1 -5 -6 -11 -15 -13 -11 -2 -18 3 -18
13 0 17 30 18 33 0z m514 -234 c15 -17 21 -34 18 -48 -5 -22 11 -45 46 -63 15
-8 19 -7 19 5 0 8 -7 15 -15 15 -8 0 -15 3 -15 8 0 8 49 32 67 32 7 0 19 12
27 28 16 30 20 25 31 -40 5 -35 4 -38 -17 -38 -13 0 -30 4 -38 10 -9 6 -17 5
-22 -3 -11 -17 -10 -27 4 -27 6 0 22 -10 34 -21 19 -18 21 -25 12 -43 -16 -31
-16 -31 -35 -10 -11 11 -33 20 -57 21 -49 2 -93 23 -130 62 -34 36 -30 67 8
57 14 -3 28 0 35 8 9 10 3 21 -27 47 -58 51 -61 62 -11 42 24 -9 54 -28 66
-42z m-205 -143 c6 -17 18 -28 29 -28 32 0 66 -43 89 -110 12 -36 26 -68 32
-71 6 -4 14 -26 18 -50 5 -24 12 -52 16 -63 6 -15 4 -17 -14 -12 -12 4 -43 0
-69 -9 -26 -9 -70 -21 -97 -26 -27 -5 -71 -23 -99 -40 -44 -27 -51 -29 -59
-15 -12 21 -23 20 -57 -5 -25 -18 -38 -20 -102 -15 -94 7 -93 7 -163 0 -36 -4
-62 -2 -69 5 -8 8 -8 11 2 11 7 0 10 4 6 10 -3 5 -18 9 -33 9 -15 -1 -79 2
-142 6 -146 9 -163 9 -232 -3 -63 -11 -161 -59 -155 -76 5 -13 93 -9 119 5 25
13 98 11 143 -5 41 -15 38 -19 -22 -30 -18 -3 -53 -15 -77 -26 -36 -16 -43
-24 -39 -40 3 -11 0 -20 -6 -20 -6 0 -11 7 -11 15 0 18 -8 19 -23 2 -22 -24
-37 -57 -37 -82 0 -15 -9 -31 -25 -41 -23 -15 -27 -15 -51 2 -37 27 -40 28
-124 68 -89 43 -133 68 -142 81 -10 14 2 63 29 110 27 50 138 146 202 176 26
12 78 37 117 55 39 19 76 40 83 47 10 13 40 24 126 45 22 6 59 15 81 21 50 13
98 14 122 2 25 -12 82 -32 127 -43 52 -14 57 -16 77 -30 13 -10 27 -7 72 15
33 16 72 27 98 27 39 1 78 17 78 34 0 3 -9 6 -20 6 -27 0 -25 7 10 37 17 14
42 45 56 70 17 28 32 42 40 39 8 -3 20 -8 27 -11 7 -3 21 1 32 9 18 13 20 13
23 -7 2 -12 8 -34 14 -49z m290 -361 l4 -67 -69 4 c-64 4 -108 16 -59 16 12 0
22 5 22 10 0 6 6 10 13 10 17 0 67 65 67 88 0 22 14 40 17 20 1 -7 3 -43 5
-81z m-2022 -117 c44 -45 76 -70 91 -70 24 0 48 -25 49 -51 0 -9 16 -42 35
-74 18 -31 44 -88 55 -126 21 -66 41 -99 60 -99 19 0 20 22 5 78 -14 48 -15
71 -7 131 16 109 17 109 130 49 133 -70 136 -72 143 -81 3 -5 26 -14 50 -21
41 -12 44 -15 47 -52 10 -149 70 -227 200 -260 54 -14 70 -14 110 -3 95 26
190 88 284 184 60 61 103 141 118 218 l12 69 -31 32 c-53 55 -44 66 52 66 51
0 88 5 95 12 8 8 15 9 22 2 7 -7 1 -21 -19 -45 -30 -34 -46 -84 -36 -111 4 -9
17 -20 31 -26 13 -7 24 -20 24 -30 0 -11 9 -31 21 -45 15 -20 18 -31 10 -45
-6 -10 -6 -23 -2 -28 4 -5 13 -34 20 -64 7 -35 23 -68 41 -89 17 -18 30 -38
30 -42 0 -5 7 -9 15 -9 8 0 15 3 15 8 0 27 -26 91 -51 125 -16 22 -29 44 -29
49 0 18 30 6 49 -20 47 -67 161 -137 161 -100 0 8 -21 26 -46 39 -58 29 -134
116 -134 153 0 19 -5 26 -20 26 -12 0 -20 7 -20 16 0 9 -9 28 -20 42 l-21 26
28 22 c15 13 33 23 39 24 7 0 14 7 18 15 8 21 40 19 61 -5 20 -23 45 -26 63
-8 9 9 15 9 24 0 7 -7 21 -12 33 -12 37 0 56 22 58 69 2 47 24 68 34 32 4 -17
13 -21 44 -21 44 0 119 -21 119 -32 0 -5 -4 -8 -10 -8 -5 0 -10 -4 -10 -10 0
-5 8 -10 19 -10 26 0 48 -27 33 -42 -7 -7 -12 -32 -12 -58 0 -25 -11 -73 -23
-108 -18 -51 -28 -66 -56 -80 -19 -9 -42 -32 -52 -50 -9 -19 -24 -39 -32 -45
-9 -7 -23 -34 -32 -61 -8 -27 -27 -73 -40 -103 -14 -29 -25 -58 -25 -63 0 -5
-5 -21 -10 -35 l-10 -27 -31 26 c-33 28 -44 31 -54 16 -13 -21 -41 -8 -88 41
-46 48 -48 52 -31 70 16 18 14 49 -4 49 -5 0 -30 -21 -55 -46 -36 -35 -47 -55
-53 -89 -6 -41 -4 -46 37 -89 24 -25 51 -46 61 -46 10 0 18 -4 18 -8 0 -5 -76
-14 -170 -22 -93 -7 -170 -17 -170 -21 0 -16 263 -15 303 0 21 8 103 15 145
12 6 -1 12 -12 12 -26 0 -21 5 -25 30 -25 35 0 38 -14 10 -50 -11 -14 -20 -33
-20 -42 0 -9 -4 -20 -10 -23 -6 -3 -10 -19 -10 -35 0 -38 -45 -89 -105 -120
-26 -13 -66 -40 -88 -60 -63 -54 -67 -56 -242 -66 -86 -5 -118 -3 -145 8 -21
9 -43 12 -55 7 -52 -20 -199 -7 -257 22 -10 5 -23 9 -29 9 -6 0 -29 13 -53 29
-23 16 -64 41 -91 56 -28 15 -67 43 -87 63 -21 20 -77 65 -125 101 -81 62
-107 91 -134 151 -14 32 -18 39 -53 89 -36 52 -53 137 -31 161 19 21 19 51 0
76 -21 27 -34 3 -28 -47 6 -39 5 -39 -28 -39 -31 0 -66 18 -147 75 -40 29 -95
121 -88 149 4 16 -1 37 -13 58 -10 18 -22 51 -26 72 -4 25 -17 48 -36 65 -30
26 -39 61 -16 61 13 0 37 65 37 102 0 13 7 32 15 42 8 11 12 29 9 43 -7 27 1
53 17 53 6 0 41 -31 79 -70z m1330 -134 c0 -68 -12 -98 -42 -110 -25 -9 -28
-15 -28 -55 0 -39 -6 -50 -47 -95 -53 -57 -149 -125 -204 -144 -58 -20 -168
-16 -209 9 -42 25 -71 55 -87 90 -17 40 -26 170 -14 202 13 34 35 31 39 -6 2
-15 7 -27 11 -27 12 0 31 48 31 81 0 17 6 32 15 35 23 9 65 -5 65 -21 0 -8 9
-15 20 -15 11 0 20 7 20 15 0 10 9 15 28 14 43 -2 77 -15 74 -28 -5 -23 22 -5
38 25 20 36 45 42 60 15 12 -23 75 -30 82 -10 3 9 10 8 25 -1 28 -18 81 3 94
37 13 34 29 28 29 -11z"/>
<path d="M1523 3043 c-4 -10 -1 -19 7 -21 7 -3 23 -15 35 -28 42 -46 49 -21 9
32 -29 38 -42 42 -51 17z"/>
<path d="M1432 3008 c-21 -21 -13 -28 28 -28 22 0 40 4 40 8 0 14 -23 32 -40
32 -9 0 -21 -5 -28 -12z"/>
<path d="M1313 2986 c-31 -15 -29 -28 4 -24 17 2 29 10 31 21 4 19 -3 20 -35
3z"/>
<path d="M1657 2951 c-19 -17 -41 -31 -49 -31 -15 0 -38 -19 -38 -32 0 -16 47
-7 65 12 10 11 26 20 37 20 25 0 98 23 98 31 0 4 -10 9 -22 12 -13 2 -30 8
-39 11 -11 5 -29 -3 -52 -23z"/>
<path d="M1155 2919 c-12 -19 5 -23 22 -6 16 16 16 17 1 17 -9 0 -20 -5 -23
-11z"/>
<path d="M1245 2921 c-6 -11 9 -23 19 -14 9 9 7 23 -3 23 -6 0 -12 -4 -16 -9z"/>
<path d="M1370 2910 c0 -5 7 -10 15 -10 8 0 15 5 15 10 0 6 -7 10 -15 10 -8 0
-15 -4 -15 -10z"/>
<path d="M1020 2870 c0 -5 7 -10 15 -10 8 0 15 5 15 10 0 6 -7 10 -15 10 -8 0
-15 -4 -15 -10z"/>
<path d="M2080 2850 c0 -5 12 -10 26 -10 14 0 23 4 19 10 -3 6 -15 10 -26 10
-10 0 -19 -4 -19 -10z"/>
<path d="M1988 2808 c-27 -9 -38 -27 -18 -29 6 0 39 -1 75 -1 36 0 70 1 75 1
19 2 10 16 -17 29 -32 14 -77 14 -115 0z"/>
<path d="M2150 2810 c0 -5 5 -10 10 -10 6 0 10 5 10 10 0 6 -4 10 -10 10 -5 0
-10 -4 -10 -10z"/>
<path d="M1890 2779 c0 -14 5 -19 17 -17 26 5 29 38 4 38 -15 0 -21 -6 -21
-21z"/>
<path d="M1890 2651 c0 -4 20 -14 44 -21 37 -10 48 -10 65 2 12 8 18 18 14 21
-10 10 -123 8 -123 -2z"/>
<path d="M2013 2557 c5 -16 78 -30 90 -18 12 12 1 17 -56 25 -27 3 -37 1 -34
-7z"/>
<path d="M2556 2416 c7 -17 44 -22 44 -6 0 6 -4 10 -9 10 -5 0 -17 3 -25 6
-12 5 -15 2 -10 -10z"/>
<path d="M597 1453 c-10 -9 -9 -53 1 -53 8 0 32 43 32 55 0 7 -26 6 -33 -2z"/>
<path d="M717 1363 c-20 -11 -27 -21 -25 -36 4 -31 39 -28 57 5 20 35 5 49
-32 31z"/>
<path d="M2295 1370 c-8 -14 3 -30 21 -30 8 0 14 9 14 20 0 21 -24 28 -35 10z"/>
<path d="M2410 1361 c0 -13 -8 -21 -22 -23 -12 -2 -29 -15 -38 -30 -13 -25
-13 -29 1 -43 14 -14 19 -13 54 15 21 16 48 30 61 30 33 0 30 14 -9 44 -41 31
-47 32 -47 7z"/>
<path d="M2664 1356 c-12 -26 -4 -111 11 -111 6 0 11 20 13 45 2 25 7 49 12
54 6 6 5 15 -1 23 -16 18 -22 16 -35 -11z"/>
<path d="M792 1323 c2 -10 10 -18 18 -18 8 0 16 8 18 18 2 12 -3 17 -18 17
-15 0 -20 -5 -18 -17z"/>
<path d="M2515 1311 c-3 -5 -1 -12 5 -16 12 -7 30 2 30 16 0 12 -27 12 -35 0z"/>
<path d="M648 1274 c-9 -9 11 -60 30 -76 9 -8 33 -21 52 -28 19 -8 55 -31 79
-52 51 -44 61 -47 61 -15 0 33 -59 86 -104 94 -20 3 -42 13 -49 22 -22 28 -63
61 -69 55z"/>
<path d="M690 1100 c0 -19 11 -26 23 -14 8 8 -3 34 -14 34 -5 0 -9 -9 -9 -20z"/>
<path d="M2024 1095 c-7 -18 3 -35 21 -35 18 0 26 25 12 39 -15 15 -27 14 -33
-4z"/>
<path d="M1895 1075 c-37 -36 -35 -113 3 -156 32 -36 53 -38 136 -15 33 9 65
15 71 12 7 -2 18 0 26 4 11 7 10 13 -5 29 -25 28 -53 26 -110 -4 -58 -31 -71
-31 -90 -3 -21 30 -20 76 3 115 30 48 7 60 -34 18z"/>
<path d="M2437 1033 c-11 -10 13 -33 34 -33 22 0 24 11 7 28 -13 13 -31 16
-41 5z"/>
<path d="M2034 855 c-10 -8 -33 -15 -51 -15 -25 0 -34 -6 -45 -30 -9 -22 -18
-28 -31 -24 -10 3 -26 -1 -35 -9 -25 -21 -112 -29 -129 -11 -8 8 -18 14 -22
14 -5 0 -31 -31 -60 -69 -38 -52 -51 -78 -51 -103 1 -66 52 -90 77 -37 21 43
42 54 107 55 75 2 136 13 136 25 0 5 -11 9 -24 9 -32 0 -38 10 -20 35 14 19
16 19 25 3 23 -41 177 -8 214 45 49 70 -25 162 -91 112z"/>
<path d="M2126 523 c-21 -3 -49 -11 -62 -20 -13 -8 -42 -21 -66 -27 -23 -7
-44 -18 -46 -24 -5 -15 247 -14 266 0 21 17 14 43 -17 61 -16 9 -31 16 -33 15
-1 -1 -21 -3 -42 -5z"/>
<path d="M1650 260 c0 -13 28 -25 38 -16 3 4 0 11 -8 16 -20 13 -30 12 -30 0z"/>
<path d="M1839 1333 c-1 -5 -2 -17 -3 -28 -1 -13 -9 -21 -26 -23 -26 -4 -50
-27 -50 -49 0 -21 30 -15 61 12 23 18 37 23 59 18 24 -4 30 -2 30 11 0 30 -67
85 -71 59z"/>
<path d="M1610 1309 c0 -11 5 -17 10 -14 6 3 10 13 10 21 0 8 -4 14 -10 14 -5
0 -10 -9 -10 -21z"/>
<path d="M1693 1323 c-18 -7 -16 -33 2 -33 8 0 15 -7 15 -15 0 -8 7 -15 15
-15 8 0 15 4 15 9 0 5 7 17 17 26 14 14 14 18 2 26 -15 9 -46 11 -66 2z"/>
<path d="M1610 1270 c0 -5 7 -10 15 -10 8 0 15 5 15 10 0 6 -7 10 -15 10 -8 0
-15 -4 -15 -10z"/>
<path d="M1684 1235 c-36 -15 -51 -43 -28 -52 8 -3 27 0 41 8 51 27 40 67 -13
44z"/>
</g>
</svg>
